<svg width="161" height="161" viewBox="0 0 161 161" fill="none" xmlns="http://www.w3.org/2000/svg">
<g clip-path="url(#clip0)">
<path d="M154.98 37.1374C151.793 33.7987 147.392 31.8259 142.384 31.8259H117.192V31.5223C117.192 27.7284 115.674 24.0862 113.094 21.658C110.514 19.0781 107.024 17.5605 103.23 17.5605H57.7023C53.7566 17.5605 50.2662 19.0781 47.6863 21.658C45.1064 24.2379 43.5888 27.7284 43.5888 31.5223V31.8259H18.5486C13.5406 31.8259 9.13959 33.7987 5.95266 37.1374C2.76573 40.3243 0.641113 44.8771 0.641113 49.7334V125.309C0.641113 130.317 2.61397 134.718 5.95266 137.905C9.13959 141.092 13.6923 143.217 18.5486 143.217H142.384C147.392 143.217 151.793 141.244 154.98 137.905C158.166 134.718 160.291 130.165 160.291 125.309V49.7334C160.291 44.7253 158.318 40.3243 154.98 37.1374ZM152.4 125.309H152.248C152.248 128.041 151.186 130.469 149.364 132.29C147.543 134.111 145.115 135.173 142.384 135.173H18.5486C15.817 135.173 13.3888 134.111 11.5677 132.29C9.74663 130.469 8.68432 128.041 8.68432 125.309V49.7334C8.68432 47.0017 9.74663 44.5736 11.5677 42.7525C13.3888 40.9314 15.817 39.8691 18.5486 39.8691H47.838C50.1144 39.8691 51.9355 38.048 51.9355 35.7716V31.3706C51.9355 29.7012 52.5425 28.1836 53.6049 27.1213C54.6672 26.059 56.1847 25.452 57.8541 25.452H103.23C104.899 25.452 106.417 26.059 107.479 27.1213C108.541 28.1836 109.148 29.7012 109.148 31.3706V35.7716C109.148 38.048 110.97 39.8691 113.246 39.8691H142.535C145.267 39.8691 147.695 40.9314 149.516 42.7525C151.337 44.5736 152.4 47.0017 152.4 49.7334V125.309Z" fill="#B5B5B5"/>
<path d="M80.4662 50.188C70.1466 50.188 60.7375 54.4372 54.0602 61.1146C47.231 67.9437 43.1335 77.201 43.1335 87.5206C43.1335 97.8402 47.3828 107.249 54.0602 113.927C60.8893 120.756 70.1466 124.853 80.4662 124.853C90.7857 124.853 100.195 120.604 106.872 113.927C113.701 107.097 117.799 97.8402 117.799 87.5206C117.799 77.201 113.55 67.792 106.872 61.1146C100.195 54.4372 90.7857 50.188 80.4662 50.188ZM101.105 108.312C95.7938 113.471 88.5094 116.81 80.4662 116.81C72.4229 116.81 65.1385 113.471 59.827 108.312C54.5154 103 51.3285 95.7156 51.3285 87.6724C51.3285 79.6292 54.6672 72.3447 59.827 67.0332C65.1385 61.7216 72.4229 58.5347 80.4662 58.5347C88.5094 58.5347 95.7938 61.8734 101.105 67.0332C106.417 72.3447 109.604 79.6292 109.604 87.6724C109.756 95.7156 106.417 103 101.105 108.312Z" fill="#B5B5B5"/>
<path d="M134.492 64.909C138.598 64.909 141.928 61.5797 141.928 57.4728C141.928 53.3659 138.598 50.0366 134.492 50.0366C130.385 50.0366 127.055 53.3659 127.055 57.4728C127.055 61.5797 130.385 64.909 134.492 64.909Z" fill="#B5B5B5"/>
</g>
<defs>
<clipPath id="clip0">
<rect width="159.65" height="159.65" fill="white" transform="translate(0.640381 0.562988)"/>
</clipPath>
</defs>
</svg>
