<svg width="36" height="30" viewBox="0 0 36 30" fill="none" xmlns="http://www.w3.org/2000/svg">
<path d="M28.6072 28.8313H7.07377C6.06333 28.8313 5.22641 28.073 5.12639 27.0677L3.71382 12.9124C3.69953 12.7685 3.74648 12.6256 3.84344 12.5195C3.9404 12.4123 4.07717 12.3511 4.2221 12.3511H31.4609C31.6048 12.3511 31.7426 12.4123 31.8396 12.5195C31.9365 12.6256 31.9835 12.7695 31.9692 12.9124L30.5576 27.0677C30.4556 28.073 29.6176 28.8313 28.6072 28.8313ZM4.78447 13.3727L6.1409 26.9666C6.18887 27.4484 6.58896 27.8107 7.07274 27.8107H28.6072C29.091 27.8107 29.4921 27.4484 29.5401 26.9666L30.8965 13.3727H4.78447Z" fill="#000113" stroke="black"/>
<path d="M8.76087 7.37051C8.61492 7.37051 8.46999 7.30826 8.36997 7.18782C8.18727 6.97247 8.21585 6.64994 8.43223 6.46929L14.8071 1.12114C15.0245 0.940491 15.346 0.968048 15.5257 1.18442C15.7073 1.39978 15.6788 1.7223 15.4624 1.90295L9.08748 7.2511C8.99256 7.33071 8.8762 7.37051 8.76087 7.37051Z" fill="#000113" stroke="black"/>
<path d="M26.9211 7.36925C26.8058 7.36925 26.6894 7.32944 26.5935 7.24983L20.2175 1.90169C20.0022 1.72001 19.9736 1.39851 20.1543 1.18214C20.337 0.966781 20.6574 0.938203 20.8738 1.11886L27.2497 6.467C27.4651 6.64868 27.4937 6.97018 27.313 7.18655C27.212 7.30699 27.067 7.36925 26.9211 7.36925Z" fill="#000113" stroke="black"/>
<path d="M32.9204 13.3726H2.76054C1.78991 13.3726 0.999939 12.5826 0.999939 11.612V8.348C0.999939 7.37738 1.78991 6.5874 2.76054 6.5874H32.9204C33.891 6.5874 34.681 7.37738 34.681 8.348V11.612C34.681 12.5826 33.8921 13.3726 32.9204 13.3726ZM2.76054 7.60702C2.35229 7.60702 2.02058 7.93873 2.02058 8.34698V11.611C2.02058 12.0192 2.35229 12.351 2.76054 12.351H32.9204C33.3277 12.351 33.6604 12.0192 33.6604 11.611V8.34698C33.6604 7.93873 33.3287 7.60702 32.9204 7.60702H2.76054Z" fill="#000113" stroke="black"/>
<path d="M10.446 24.661C10.1643 24.661 9.93567 24.4324 9.93567 24.1507V16.751C9.93567 16.4693 10.1643 16.2407 10.446 16.2407C10.7277 16.2407 10.9563 16.4693 10.9563 16.751V24.1507C10.9563 24.4334 10.7287 24.661 10.446 24.661Z" fill="#000113" stroke="black"/>
<path d="M15.3757 24.661C15.094 24.661 14.8654 24.4324 14.8654 24.1507V16.751C14.8654 16.4693 15.094 16.2407 15.3757 16.2407C15.6574 16.2407 15.886 16.4693 15.886 16.751V24.1507C15.886 24.4334 15.6584 24.661 15.3757 24.661Z" fill="#000113" stroke="black"/>
<path d="M20.3054 24.661C20.0237 24.661 19.795 24.4324 19.795 24.1507V16.751C19.795 16.4693 20.0237 16.2407 20.3054 16.2407C20.5871 16.2407 20.8157 16.4693 20.8157 16.751V24.1507C20.8157 24.4334 20.5871 24.661 20.3054 24.661Z" fill="#000113" stroke="black"/>
<path d="M25.235 24.661C24.9533 24.661 24.7247 24.4324 24.7247 24.1507V16.751C24.7247 16.4693 24.9533 16.2407 25.235 16.2407C25.5167 16.2407 25.7453 16.4693 25.7453 16.751V24.1507C25.7453 24.4334 25.5167 24.661 25.235 24.661Z" fill="#000113" stroke="black"/>
</svg>
