<svg width="49" height="49" viewBox="0 0 49 49" fill="none" xmlns="http://www.w3.org/2000/svg">
<path d="M24.5 49C10.9899 49 0 38.0101 0 24.5C0 10.9899 10.9899 0 24.5 0C38.0101 0 49 10.9918 49 24.5C49 38.0082 38.0101 49 24.5 49ZM24.5 3.79549C13.085 3.79549 3.79549 13.0831 3.79549 24.5C3.79549 35.9169 13.085 45.2045 24.5 45.2045C35.915 45.2045 45.2045 35.9169 45.2045 24.5C45.2045 13.0831 35.9169 3.79549 24.5 3.79549Z" fill="#262626"/>
<path d="M29.8681 32.7224L24.5005 27.3548L19.1329 32.7224C18.3921 33.4632 17.1911 33.4645 16.449 32.7224C15.7069 31.9803 15.7082 30.7793 16.449 30.0385L21.8166 24.6709L16.449 19.3033C15.7069 18.5612 15.7082 17.3601 16.449 16.6194C17.1897 15.8786 18.3908 15.8773 19.1329 16.6194L24.5005 21.987L29.8681 16.6194C30.6089 15.8786 31.8099 15.8773 32.552 16.6194C33.2941 17.3615 33.2928 18.5625 32.552 19.3033L27.1844 24.6709L32.552 30.0385C33.2941 30.7806 33.2928 31.9817 32.552 32.7224C31.8113 33.4632 30.6102 33.4645 29.8681 32.7224Z" fill="#262626"/>
</svg>
