<svg width="33" height="31" viewBox="0 0 33 31" fill="none" xmlns="http://www.w3.org/2000/svg">
<path d="M32.1389 9.64751C31.6837 4.63632 28.1367 1.0006 23.6978 1.0006C20.7405 1.0006 18.0327 2.59202 16.5091 5.1426C14.9993 2.55902 12.4025 1 9.49261 1C5.05428 1 1.50674 4.63572 1.05205 9.64691C1.01605 9.86826 0.86849 11.0332 1.31718 12.9329C1.96383 15.6731 3.45746 18.1655 5.63554 20.139L16.5019 30L27.5548 20.1396C29.7329 18.1655 31.2266 15.6737 31.8732 12.9329C32.3219 11.0338 32.1743 9.86886 32.1389 9.64751ZM30.7053 12.6582C30.115 15.1608 28.7468 17.4408 26.7522 19.2476L16.5091 28.3864L6.44174 19.25C4.44363 17.4396 3.07596 15.1602 2.4851 12.6576C2.0604 10.8598 2.23496 9.84426 2.23556 9.83767L2.24456 9.77708C2.63446 5.38674 5.68233 2.19971 9.49261 2.19971C12.3041 2.19971 14.7791 3.92729 15.9536 6.70762L16.5061 8.01711L17.0586 6.70762C18.2145 3.96988 20.8203 2.20031 23.6984 2.20031C27.5081 2.20031 30.5565 5.38734 30.9542 9.83467C30.9554 9.84426 31.13 10.8604 30.7053 12.6582Z" fill="#000113" stroke="black"/>
</svg>
