<svg width="28" height="28" viewBox="0 0 28 28" fill="none" xmlns="http://www.w3.org/2000/svg">
<path d="M26.8579 26.1689L19.2827 18.5834C21.2149 16.7175 22.4119 14.1453 22.4119 11.3085C22.4119 5.6241 17.6095 1 11.7059 1C5.80238 1 1 5.6241 1 11.3085C1 16.9929 5.80238 21.617 11.7059 21.617C14.2973 21.617 16.6755 20.7251 18.5292 19.2451L26.1228 26.8493C26.2227 26.9499 26.3563 27 26.4903 27C26.6178 27 26.7447 26.9543 26.8436 26.863C27.0465 26.675 27.0527 26.3643 26.8579 26.1689ZM11.7059 20.6352C6.3647 20.6352 2.01961 16.4515 2.01961 11.3085C2.01961 6.16554 6.3647 1.98176 11.7059 1.98176C17.0472 1.98176 21.3923 6.16554 21.3923 11.3085C21.3923 16.4515 17.0467 20.6352 11.7059 20.6352Z" fill="#000113" stroke="black"/>
</svg>
