<svg width="67" height="67" viewBox="0 0 67 67" fill="none" xmlns="http://www.w3.org/2000/svg">
<path d="M33.5 67C15.027 67 0 51.973 0 33.5C0 15.027 15.027 0 33.5 0C51.973 0 67 15.0296 67 33.5C67 51.9704 51.973 67 33.5 67ZM33.5 5.18975C17.8917 5.18975 5.18975 17.8891 5.18975 33.5C5.18975 49.1109 17.8917 61.8102 33.5 61.8102C49.1083 61.8102 61.8102 49.1109 61.8102 33.5C61.8102 17.8891 49.1109 5.18975 33.5 5.18975Z" fill="#B5B5B5"/>
<path d="M46.4746 36.3288H36.0951V46.7083C36.0951 48.1407 34.9352 49.3032 33.5002 49.3032C32.0652 49.3032 30.9052 48.1407 30.9052 46.7083V36.3288H20.5257C19.0907 36.3288 17.9308 35.1662 17.9308 33.7338C17.9308 32.3014 19.0907 31.1389 20.5257 31.1389H30.9052V20.7594C30.9052 19.327 32.0652 18.1644 33.5002 18.1644C34.9352 18.1644 36.0951 19.327 36.0951 20.7594V31.1389H46.4746C47.9096 31.1389 49.0696 32.3014 49.0696 33.7338C49.0696 35.1662 47.9096 36.3288 46.4746 36.3288Z" fill="#B5B5B5"/>
</svg>
