<svg width="31" height="31" viewBox="0 0 31 31" fill="none" xmlns="http://www.w3.org/2000/svg">
<path d="M15.5 31C6.95278 31 0 24.0472 0 15.5C0 6.95278 6.95278 0 15.5 0C24.0472 0 31 6.95399 31 15.5C31 24.046 24.0472 31 15.5 31ZM15.5 2.40123C8.27827 2.40123 2.40123 8.27706 2.40123 15.5C2.40123 22.7229 8.27827 28.5988 15.5 28.5988C22.7217 28.5988 28.5988 22.7229 28.5988 15.5C28.5988 8.27706 22.7229 2.40123 15.5 2.40123Z" fill="black"/>
<path d="M21.5032 16.8084H16.7008V21.6109C16.7008 22.2736 16.1641 22.8115 15.5001 22.8115C14.8362 22.8115 14.2995 22.2736 14.2995 21.6109V16.8084H9.49703C8.83307 16.8084 8.29639 16.2705 8.29639 15.6078C8.29639 14.945 8.83307 14.4071 9.49703 14.4071H14.2995V9.60468C14.2995 8.94193 14.8362 8.40403 15.5001 8.40403C16.1641 8.40403 16.7008 8.94193 16.7008 9.60468V14.4071H21.5032C22.1672 14.4071 22.7039 14.945 22.7039 15.6078C22.7039 16.2705 22.1672 16.8084 21.5032 16.8084Z" fill="black"/>
</svg>
