<svg width="50" height="50" viewBox="0 0 50 50" fill="none" xmlns="http://www.w3.org/2000/svg">
<path d="M25 50C11.2142 50 0 38.7858 0 25C0 11.2142 11.2142 0 25 0C38.7858 0 50 11.2161 50 25C50 38.7839 38.7858 50 25 50ZM25 3.87295C13.3521 3.87295 3.87295 13.3501 3.87295 25C3.87295 36.6499 13.3521 46.1271 25 46.1271C36.6479 46.1271 46.1271 36.6499 46.1271 25C46.1271 13.3501 36.6499 3.87295 25 3.87295Z" fill="#262626"/>
<path d="M16.1292 23.9443C18.822 27.8237 23.0071 34.2144 23.3662 33.8563C23.7252 33.4982 31.5943 22.964 35.484 17.7417" stroke="#262626" stroke-width="3" stroke-linecap="round"/>
</svg>
