<svg width="30" height="30" viewBox="0 0 30 30" fill="none" xmlns="http://www.w3.org/2000/svg">
<path d="M29.8093 14.4164C29.5413 14.0498 23.1556 5.43945 14.9999 5.43945C6.84411 5.43945 0.458087 14.0498 0.190371 14.416C-0.0634571 14.7638 -0.0634571 15.2356 0.190371 15.5834C0.458087 15.95 6.84411 24.5603 14.9999 24.5603C23.1556 24.5603 29.5413 15.95 29.8093 15.5837C30.0635 15.2359 30.0635 14.7638 29.8093 14.4164ZM14.9999 22.5823C8.99228 22.5823 3.78909 16.8675 2.24883 14.9992C3.7871 13.1293 8.97939 7.41746 14.9999 7.41746C21.0071 7.41746 26.21 13.1313 27.7509 15.0006C26.2126 16.8704 21.0203 22.5823 14.9999 22.5823Z" fill="black"/>
<path d="M14.9999 9.06592C11.728 9.06592 9.06586 11.728 9.06586 15C9.06586 18.272 11.728 20.9341 14.9999 20.9341C18.2719 20.9341 20.934 18.272 20.934 15C20.934 11.728 18.2719 9.06592 14.9999 9.06592ZM14.9999 18.956C12.8185 18.956 11.0439 17.1814 11.0439 15C11.0439 12.8186 12.8186 11.044 14.9999 11.044C17.1813 11.044 18.956 12.8186 18.956 15C18.956 17.1814 17.1814 18.956 14.9999 18.956Z" fill="black"/>
</svg>
