<svg width="30" height="29" viewBox="0 0 30 29" fill="none" xmlns="http://www.w3.org/2000/svg">
<path d="M28.0429 9.36506C27.6484 5.02291 24.575 1.87259 20.7287 1.87259C18.1662 1.87259 15.82 3.25154 14.4998 5.46159C13.1915 3.22295 10.9414 1.87207 8.42004 1.87207C4.57427 1.87207 1.50036 5.02239 1.10638 9.36454C1.07519 9.55633 0.947327 10.5657 1.33611 12.2118C1.89642 14.5861 3.19065 16.7458 5.07793 18.4558L14.4935 27.0003L24.0708 18.4563C25.9581 16.7458 27.2523 14.5867 27.8126 12.2118C28.2014 10.5662 28.0735 9.55685 28.0429 9.36506ZM26.8006 11.9738C26.2892 14.1423 25.1036 16.1179 23.3753 17.6834L14.4998 25.6021L5.7765 17.6855C4.04515 16.1169 2.86008 14.1417 2.3481 11.9733C1.98011 10.4155 2.13136 9.53554 2.13188 9.52982L2.13968 9.47733C2.47753 5.67314 5.11847 2.91161 8.42004 2.91161C10.8562 2.91161 13.0008 4.40854 14.0185 6.81767L14.4972 7.95233L14.9759 6.81767C15.9775 4.44545 18.2354 2.91213 20.7292 2.91213C24.0303 2.91213 26.6717 5.67366 27.0163 9.52723C27.0174 9.53554 27.1686 10.416 26.8006 11.9738Z" fill="#434343" stroke="#434343" stroke-width="2"/>
</svg>
