<svg width="32" height="30" viewBox="0 0 32 30" fill="none" xmlns="http://www.w3.org/2000/svg">
<path d="M31 17.8125C31 17.0613 30.7012 16.3612 30.1863 15.845C30.77 15.2062 31.0675 14.3499 30.9862 13.4587C30.84 11.87 29.4087 10.625 27.7262 10.625H20.005C20.3875 9.46369 21 7.33498 21 5.62498C21 2.91373 18.6963 0.625 17.25 0.625C15.9525 0.625 15.0237 1.35625 14.985 1.38625C14.8362 1.50502 14.75 1.68502 14.75 1.87498V6.11371L11.1487 13.9125L11 13.9887V13.7499C11 13.4049 10.7199 13.1249 10.3749 13.1249H4.12498C2.40127 13.125 1 14.5263 1 16.25V26.25C1 27.9738 2.40127 29.375 4.12498 29.375H7.87498C9.22621 29.375 10.3812 28.5125 10.8162 27.3087C11.8562 27.8437 13.2562 28.125 14.125 28.125H25.5988C26.96 28.125 28.1513 27.2075 28.4312 25.9425C28.575 25.29 28.4913 24.6337 28.2063 24.0637C29.1287 23.6 29.75 22.6462 29.75 21.5625C29.75 21.12 29.6488 20.6962 29.4575 20.3137C30.38 19.8487 31 18.8962 31 17.8125ZM28.3638 19.355C28.1225 19.3837 27.9187 19.5474 27.8413 19.7787C27.765 20.01 27.8288 20.2637 28.0063 20.4312C28.3238 20.73 28.5 21.1325 28.5 21.5625C28.5 22.3512 27.9038 23.0137 27.1151 23.105C26.8738 23.1337 26.67 23.2974 26.5926 23.5287C26.5163 23.76 26.5801 24.0137 26.7576 24.1812C27.1688 24.5687 27.3338 25.1124 27.2101 25.6725C27.0563 26.37 26.3788 26.875 25.5988 26.875H14.125C13.11 26.875 11.4075 26.3988 10.8175 25.8075C10.6387 25.63 10.3687 25.5775 10.1362 25.6725C9.9025 25.7688 9.74998 25.9975 9.74998 26.25C9.74998 27.2838 8.90875 28.125 7.87498 28.125H4.12498C3.09121 28.125 2.24998 27.2838 2.24998 26.25V16.25C2.24998 15.2162 3.09121 14.375 4.12498 14.375H9.74998V15C9.74998 15.2163 9.86248 15.4175 10.0475 15.5325C10.23 15.6425 10.46 15.6537 10.655 15.5587L11.9049 14.9337C12.0312 14.8712 12.1325 14.7662 12.1925 14.6375L15.9425 6.51244C15.98 6.42994 15.9999 6.33994 15.9999 6.24994V2.21371C16.26 2.06998 16.7113 1.87498 17.25 1.87498C17.935 1.87498 19.75 3.57748 19.75 5.62498C19.75 7.825 18.5525 10.9962 18.5413 11.0275C18.4688 11.2188 18.4937 11.435 18.61 11.605C18.7275 11.7738 18.92 11.875 19.125 11.875H27.7262C28.7687 11.875 29.6537 12.6213 29.7412 13.5738C29.8075 14.2863 29.465 14.9638 28.8512 15.3425C28.66 15.46 28.5463 15.6725 28.555 15.8988C28.5637 16.125 28.6938 16.3275 28.8937 16.4313C29.4225 16.7 29.75 17.23 29.75 17.8125C29.75 18.6012 29.1538 19.2637 28.3638 19.355Z" fill="black" stroke="black" stroke-width="0.7"/>
<path d="M10.3748 14.375C10.0298 14.375 9.74976 14.655 9.74976 15V26.25C9.74976 26.595 10.0298 26.875 10.3748 26.875C10.7198 26.875 10.9998 26.595 10.9998 26.25V15C10.9998 14.655 10.7198 14.375 10.3748 14.375Z" fill="black" stroke="black" stroke-width="0.7"/>
</svg>
