<svg width="31" height="31" viewBox="0 0 31 31" fill="none" xmlns="http://www.w3.org/2000/svg">
<path d="M15.5 31C6.95278 31 0 24.0472 0 15.5C0 6.95278 6.95278 0 15.5 0C24.0472 0 31 6.95399 31 15.5C31 24.046 24.0472 31 15.5 31ZM15.5 2.40123C8.27827 2.40123 2.40123 8.27706 2.40123 15.5C2.40123 22.7229 8.27827 28.5988 15.5 28.5988C22.7217 28.5988 28.5988 22.7229 28.5988 15.5C28.5988 8.27706 22.7229 2.40123 15.5 2.40123Z" fill="#FFC800"/>
<path d="M10 14.8456C11.6696 17.2509 14.2643 21.2131 14.487 20.9911C14.7096 20.769 19.5884 14.2378 22 11" stroke="#FFC800" stroke-width="3" stroke-linecap="round"/>
</svg>
