<svg width="31" height="31" viewBox="0 0 31 31" fill="none" xmlns="http://www.w3.org/2000/svg">
<path d="M15.5 31C6.95278 31 0 24.0472 0 15.5C0 6.95278 6.95278 0 15.5 0C24.0472 0 31 6.95399 31 15.5C31 24.046 24.0472 31 15.5 31ZM15.5 2.40123C8.27827 2.40123 2.40123 8.27706 2.40123 15.5C2.40123 22.7229 8.27827 28.5988 15.5 28.5988C22.7217 28.5988 28.5988 22.7229 28.5988 15.5C28.5988 8.27706 22.7229 2.40123 15.5 2.40123Z" fill="black"/>
<path d="M21.5031 16.8089H16.7007V21.6114C16.7007 22.2741 16.164 22.812 15.5 22.812C14.8361 22.812 14.2994 22.2741 14.2994 21.6114V16.8089H9.49692C8.83297 16.8089 8.29628 16.271 8.29628 15.6083C8.29628 14.9455 8.83297 14.4076 9.49692 14.4076H14.2994V9.60516C14.2994 8.94242 14.8361 8.40452 15.5 8.40452C16.164 8.40452 16.7007 8.94242 16.7007 9.60516V14.4076H21.5031C22.1671 14.4076 22.7038 14.9455 22.7038 15.6083C22.7038 16.271 22.1671 16.8089 21.5031 16.8089Z" fill="black"/>
</svg>
