<svg width="27" height="32" viewBox="0 0 27 32" fill="none" xmlns="http://www.w3.org/2000/svg">
<path d="M18.7262 18.6681L18.6492 18.6333C18.4653 18.5497 18.2802 18.4708 18.0914 18.3969C17.8855 18.3144 17.6766 18.2381 17.4646 18.1666C17.2972 18.1117 17.1286 18.0603 16.9582 18.0102C16.6986 17.9351 16.4364 17.8673 16.1665 17.8074C16.0748 17.7885 15.9814 17.7701 15.8885 17.7536L15.825 17.7413C15.6656 17.7101 15.5056 17.6827 15.3437 17.6588L15.2973 17.6515C15.2955 17.6515 15.2943 17.6503 15.2925 17.6503L15.2461 17.6442C15.1117 17.624 14.9779 17.6051 14.8386 17.5892L14.3645 17.5502C13.7818 17.5117 13.1812 17.5129 12.6052 17.555L12.4372 17.5691L12.359 17.5752L12.1629 17.5929C11.9827 17.6118 11.8037 17.6369 11.6247 17.6656L11.5722 17.6729C11.45 17.693 11.3278 17.7157 11.2074 17.7383C11.0737 17.7621 10.9417 17.7884 10.8097 17.8171C10.5544 17.8745 10.3008 17.9399 10.0553 18.0114C9.85976 18.0675 9.6668 18.1292 9.48534 18.1916L9.35949 18.2368C8.97462 18.3731 8.59222 18.5294 8.22199 18.7011L8.12304 18.7481L8.12123 18.7506C3.79182 20.8228 1 25.2377 1 30.0283C1 30.1383 1.00732 30.2464 1.01407 30.3551L1.04648 31.1151H25.9683L26.0019 30.3637C26.0092 30.2525 26.0159 30.1419 26.0159 30.0283C26.0159 25.1613 23.1563 20.7073 18.7262 18.6681ZM2.2222 29.8933C2.27476 25.592 4.81792 21.6462 8.69402 19.8288L8.81864 19.7799L8.83328 19.7659C9.13688 19.6272 9.45027 19.5008 9.76794 19.389L9.8687 19.353C10.0416 19.2931 10.2138 19.2381 10.3928 19.1874C10.6158 19.122 10.8431 19.0633 11.0709 19.0121C11.1888 18.9871 11.3068 18.9632 11.4283 18.9406C11.5248 18.9229 11.6207 18.9046 11.7179 18.8893L11.7655 18.8807C11.9402 18.8533 12.1156 18.8282 12.2903 18.8093L12.6898 18.7745C13.2127 18.736 13.713 18.7305 14.319 18.7745L14.7075 18.8069C14.8034 18.8179 14.8993 18.8307 15.016 18.8472L15.156 18.8673C15.302 18.8887 15.448 18.9137 15.5945 18.9413L15.663 18.9541C15.7455 18.9694 15.8273 18.9853 15.9049 19.0017C16.1456 19.0543 16.382 19.1166 16.6166 19.1844C16.7717 19.2297 16.9257 19.2761 17.0759 19.3262C17.2665 19.3897 17.4547 19.4588 17.641 19.5326C17.82 19.6029 17.9965 19.678 18.1713 19.7581L18.2018 19.7721C22.1659 21.5908 24.7401 25.5494 24.7927 29.8922H2.2222V29.8933ZM10.4883 15.9802C10.5799 16.0187 10.6746 16.0522 10.7692 16.0859L10.9678 16.1579C11.0441 16.1872 11.1211 16.216 11.1994 16.2404C11.9276 16.4695 12.6893 16.5874 13.4639 16.5936L13.5256 16.5948C13.7914 16.5948 14.0577 16.5807 14.313 16.5545C14.4009 16.5459 14.4865 16.5319 14.5726 16.5172L14.7639 16.4885C14.8714 16.4745 14.9789 16.4586 15.0913 16.4366C15.1683 16.4207 15.2428 16.4006 15.3174 16.3804L15.5263 16.3273C15.6295 16.3023 15.7327 16.2772 15.8348 16.2455C15.8983 16.2253 15.9607 16.2021 16.0224 16.1788L16.1903 16.1184C16.3101 16.0768 16.431 16.0341 16.552 15.9834C16.5991 15.9633 16.6449 15.9413 16.69 15.9192L16.7444 15.8923C16.91 15.8184 17.0749 15.7426 17.2386 15.6547L17.3449 15.5912C17.5281 15.4873 17.7108 15.3798 17.8959 15.2534C17.9918 15.1887 18.0834 15.1159 18.1738 15.0439L18.4866 14.8007C20.2851 13.312 21.3188 11.1274 21.3188 8.8616L21.3225 8.79687C21.3225 4.4974 17.8245 1 13.525 1C9.42109 1 6.00676 4.20901 5.75202 8.30573L5.74527 8.40715C5.73548 8.53604 5.72759 8.66494 5.72759 8.79687C5.72635 11.9373 7.59511 14.7565 10.4883 15.9802ZM6.96338 8.49184L6.9707 8.38187C7.18571 4.92724 10.0642 2.22163 13.5244 2.22163C17.1507 2.22163 20.1 5.17105 20.1031 8.74107L20.0994 8.80524C20.0969 10.7613 19.2246 12.6032 17.7005 13.8684L17.4103 14.0896C17.3455 14.1421 17.2801 14.1946 17.1989 14.2509C17.0523 14.3505 16.8971 14.4402 16.7395 14.5295L16.6521 14.5826C16.5202 14.6535 16.3815 14.7163 16.2373 14.7805L16.0754 14.8587C15.9825 14.8972 15.8848 14.9308 15.7883 14.9644L15.5866 15.0371C15.5476 15.0518 15.5078 15.0677 15.4694 15.0793C15.3943 15.1024 15.3173 15.1202 15.2408 15.1391L14.9971 15.2015C14.9446 15.2156 14.8927 15.2302 14.8463 15.24C14.765 15.2559 14.6819 15.2669 14.5995 15.2785L14.3674 15.3133C14.3112 15.3231 14.2549 15.3329 14.192 15.3389C13.9886 15.3603 13.784 15.3719 13.5763 15.3737L13.5188 15.3732H13.5176C12.8487 15.3726 12.192 15.273 11.564 15.0763C11.5096 15.0592 11.4565 15.0378 11.4033 15.0177L11.1737 14.934C11.1022 14.9089 11.0314 14.8845 10.963 14.8558C8.52426 13.8244 6.94808 11.4454 6.94808 8.79725C6.94808 8.69402 6.95606 8.5926 6.96338 8.49184Z" fill="#000113" stroke="black"/>
</svg>
